# xmcd CD database file
#
# Track frame offsets:
#	150
#	30105
#	72185
#	99565
#	136860
#	169157
#	204272
#
# Disc length: 3175 seconds
#
# Revision: 2
# Processed by: cddbd v1.5.2PL0 Copyright (c) Steve Scherf et al.
# Submitted via: CDex 1.81
#
DISCID=500c6507
DTITLE=David Matthews and Manhattan Jazz Orchestra - Bach 2000
DYEAR=2000
DGENRE=Jazz
TTITLE0=Toccata and Fugue
TTITLE1=Air on the G String
TTITLE2=Invention No. 4
TTITLE3=Kyrie
TTITLE4=Minuet
TTITLE5=Siciliano
TTITLE6=Fugue No. 2
EXTD=YEAR: 2000
EXTT0=
EXTT1=
EXTT2=
EXTT3=
EXTT4=
EXTT5=
EXTT6=
PLAYORDER=
